<?xml version="1.0" encoding="utf-8"?>
<svg xmlns="http://www.w3.org/2000/svg" xmlns:xlink="http://www.w3.org/1999/xlink" width="200px" height="200px" viewBox="0 0 100 100" preserveAspectRatio="xMidYMid">
    <g transform="rotate(0 50 50)">
        <rect x="47" y="24" rx="3" ry="6" width="6" height="12" fill="#0160AA" opacity="0.083334"></rect>
    </g>
    <g transform="rotate(30 50 50)">
        <rect x="47" y="24" rx="3" ry="6" width="6" height="12" fill="#0160AA" opacity="0.166667"></rect>
    </g>
    <g transform="rotate(60 50 50)">
        <rect x="47" y="24" rx="3" ry="6" width="6" height="12" fill="#0160AA" opacity="0.25"></rect>
    </g>
    <g transform="rotate(90 50 50)">
        <rect x="47" y="24" rx="3" ry="6" width="6" height="12" fill="#0160AA" opacity="0.333334"></rect>
    </g>
    <g transform="rotate(120 50 50)">
        <rect x="47" y="24" rx="3" ry="6" width="6" height="12" fill="#0160AA" opacity="0.416667"></rect>
    </g>
    <g transform="rotate(150 50 50)">
        <rect x="47" y="24" rx="3" ry="6" width="6" height="12" fill="#0160AA" opacity="0.5"></rect>
    </g>
    <g transform="rotate(180 50 50)">
        <rect x="47" y="24" rx="3" ry="6" width="6" height="12" fill="#0160AA" opacity="0.583334"></rect>
    </g>
    <g transform="rotate(210 50 50)">
        <rect x="47" y="24" rx="3" ry="6" width="6" height="12" fill="#0160AA" opacity="0.666667"></rect>
    </g>
    <g transform="rotate(240 50 50)">
        <rect x="47" y="24" rx="3" ry="6" width="6" height="12" fill="#0160AA" opacity="0.75"></rect>
    </g>
    <g transform="rotate(270 50 50)">
        <rect x="47" y="24" rx="3" ry="6" width="6" height="12" fill="#0160AA" opacity="0.833334"></rect>
    </g>
    <g transform="rotate(300 50 50)">
        <rect x="47" y="24" rx="3" ry="6" width="6" height="12" fill="#0160AA" opacity="0.916667"></rect>
    </g>
    <g transform="rotate(330 50 50)">
        <rect x="47" y="24" rx="3" ry="6" width="6" height="12" fill="#0160AA" opacity="1"></rect>
    </g> <!-- generated by https://loading.io/ -->
</svg>