<svg width="123" height="130" viewBox="0 0 123 130" fill="none" xmlns="http://www.w3.org/2000/svg">
<path d="M48.1977 130C73.3106 130 93.6686 126.199 93.6686 121.51C93.6686 116.821 73.3106 113.02 48.1977 113.02C23.0848 113.02 2.72678 116.821 2.72678 121.51C2.72678 126.199 23.0848 130 48.1977 130Z" fill="#3F3D56"/>
<path d="M75.834 93.9365C100.377 93.9365 120.273 72.9081 120.273 46.9682C120.273 21.0284 100.377 9.53674e-07 75.834 9.53674e-07C51.2909 9.53674e-07 31.3948 21.0284 31.3948 46.9682C31.3948 72.9081 51.2909 93.9365 75.834 93.9365Z" fill="#3F3D56"/>
<path opacity="0.05" d="M75.834 85.742C96.0951 85.742 112.52 68.3824 112.52 46.9682C112.52 25.5541 96.0951 8.19446 75.834 8.19446C55.5729 8.19446 39.1481 25.5541 39.1481 46.9682C39.1481 68.3824 55.5729 85.742 75.834 85.742Z" fill="black"/>
<path opacity="0.05" d="M75.834 78.7468C92.4398 78.7468 105.901 64.519 105.901 46.9682C105.901 29.4175 92.4398 15.1897 75.834 15.1897C59.2283 15.1897 45.7667 29.4175 45.7667 46.9682C45.7667 64.519 59.2283 78.7468 75.834 78.7468Z" fill="black"/>
<path opacity="0.05" d="M75.834 69.7528C87.74 69.7528 97.3918 59.5518 97.3918 46.9682C97.3918 34.3847 87.74 24.1837 75.834 24.1837C63.928 24.1837 54.2763 34.3847 54.2763 46.9682C54.2763 59.5518 63.928 69.7528 75.834 69.7528Z" fill="black"/>
<path d="M31.7884 51.1716C31.7884 51.1716 28.2946 61.5657 29.8474 65.2583C31.4002 68.951 33.8588 72.5069 33.8588 72.5069C33.8588 72.5069 32.953 51.8554 31.7884 51.1716Z" fill="#D0CDE1"/>
<path opacity="0.1" d="M31.7884 51.1716C31.7884 51.1716 28.2946 61.5657 29.8474 65.2583C31.4002 68.951 33.8588 72.5069 33.8588 72.5069C33.8588 72.5069 32.953 51.8554 31.7884 51.1716Z" fill="black"/>
<path d="M34.247 75.2422C34.247 75.2422 33.9882 77.8407 33.8588 77.9775C33.7294 78.1142 33.9882 78.3877 33.8588 78.798C33.7294 79.2083 33.6 79.7554 33.8588 79.8922C34.1176 80.0289 32.4354 92.0642 32.4354 92.0642C32.4354 92.0642 28.2946 97.8083 29.9768 106.835L30.4944 115.998C30.4944 115.998 34.5058 116.272 34.5058 114.767C34.5058 114.767 34.247 112.989 34.247 112.169C34.247 111.348 34.894 111.348 34.5058 110.938C34.1176 110.527 34.1176 110.254 34.1176 110.254C34.1176 110.254 34.7646 109.707 34.6353 109.57C34.5059 109.433 35.7999 99.723 35.7999 99.723C35.7999 99.723 37.2233 98.2186 37.2233 97.398V96.5774C37.2233 96.5774 37.8703 94.7995 37.8703 94.6627C37.8703 94.526 41.3641 86.1833 41.3641 86.1833L42.7875 92.201L44.3403 100.817C44.3403 100.817 45.1167 108.613 46.6695 111.622C46.6695 111.622 49.3869 121.469 49.3869 121.195C49.3869 120.922 53.9159 120.238 53.7865 119.007C53.6571 117.776 51.0691 100.544 51.0691 100.544L51.7161 74.9686L34.247 75.2422Z" fill="#2F2E41"/>
<path d="M30.7532 115.314C30.7532 115.314 27.2594 122.563 29.5886 122.836C31.9178 123.11 32.8236 123.11 33.8588 122.016C34.4248 121.418 35.5709 120.615 36.4936 120.01C37.0403 119.658 37.482 119.15 37.768 118.544C38.0539 117.938 38.1726 117.26 38.1103 116.586C38.0421 115.917 37.8056 115.365 37.2233 115.314C35.6704 115.177 33.8588 113.673 33.8588 113.673L30.7532 115.314Z" fill="#2F2E41"/>
<path d="M50.0339 120.648C50.0339 120.648 46.5401 127.897 48.8693 128.17C51.1985 128.444 52.1043 128.444 53.1395 127.349C53.7054 126.751 54.8515 125.949 55.7742 125.344C56.321 124.992 56.7627 124.483 57.0486 123.878C57.3346 123.272 57.4532 122.593 57.391 121.92C57.3228 121.251 57.0862 120.699 56.5039 120.648C54.9511 120.511 53.1395 119.007 53.1395 119.007L50.0339 120.648Z" fill="#2F2E41"/>
<path d="M46.3413 39.3096C49.3455 39.3096 51.7808 36.7356 51.7808 33.5605C51.7808 30.3854 49.3455 27.8114 46.3413 27.8114C43.3371 27.8114 40.9018 30.3854 40.9018 33.5605C40.9018 36.7356 43.3371 39.3096 46.3413 39.3096Z" fill="#FFB8B8"/>
<path d="M42.8444 35.4495C42.8444 35.4495 38.9591 43.0054 38.6483 43.0054C38.3374 43.0054 45.6419 45.4693 45.6419 45.4693C45.6419 45.4693 47.6623 38.2419 47.9731 37.5848L42.8444 35.4495Z" fill="#FFB8B8"/>
<path d="M48.8046 43.7179C48.8046 43.7179 41.0405 39.2047 40.2641 39.3414C39.4877 39.4782 31.2061 47.137 31.3355 50.2826C31.4649 53.4282 32.5001 58.6253 32.5001 58.6253C32.5001 58.6253 32.8883 73.1223 33.6647 73.2591C34.4411 73.3958 33.5353 75.8576 33.7941 75.8576C34.0529 75.8576 51.9102 75.8576 52.0396 75.4473C52.169 75.037 48.8046 43.7179 48.8046 43.7179Z" fill="#D0CDE1"/>
<path d="M53.1395 76.1995C53.1395 76.1995 55.5981 84.1319 53.5277 83.8583C51.4573 83.5848 50.5515 77.0201 50.5515 77.0201L53.1395 76.1995Z" fill="#FFB8B8"/>
<path d="M46.5401 43.2392C46.5401 43.2392 41.7523 44.3334 42.5287 51.1716C43.3051 58.0098 44.7285 64.8481 44.7285 64.8481L49.5163 75.926L50.0339 77.9775L53.5277 77.0201L50.9397 61.1554C50.9397 61.1554 50.0339 44.1966 48.8693 43.6495C48.1349 43.3186 47.3363 43.178 46.5401 43.2392V43.2392Z" fill="#D0CDE1"/>
<path opacity="0.1" d="M43.6285 64.6429L49.581 75.8575L44.5659 64.0404L43.6285 64.6429Z" fill="black"/>
<path d="M51.7567 31.8677L51.7747 31.4283L52.6016 31.6459C52.5927 31.5048 52.555 31.3675 52.491 31.2434C52.4271 31.1192 52.3384 31.0113 52.2311 30.9269L53.1118 30.8749C52.3728 29.7648 51.4285 28.8246 50.336 28.111C49.2435 27.3974 48.0255 26.9253 46.7556 26.7231C44.8504 26.4312 42.729 26.8535 41.4226 28.3479C40.7889 29.0728 40.3907 29.9946 40.1075 30.935C39.5858 32.667 39.4795 34.7317 40.5673 36.1395C41.6728 37.5704 43.6039 37.8507 45.3437 38.0278C45.9559 38.0901 46.5974 38.1481 47.1647 37.8971C47.2278 37.2093 47.1446 36.5154 46.9209 35.8662C46.8278 35.6652 46.7833 35.4429 46.7914 35.2193C46.8687 34.6722 47.5592 34.5344 48.0778 34.6083C48.5964 34.6822 49.2201 34.7953 49.5609 34.3755C49.7956 34.0864 49.7818 33.6653 49.8129 33.2857C49.8975 32.2523 51.7478 32.0843 51.7567 31.8677Z" fill="#2F2E41"/>
<path d="M85.1198 122.678C88.6202 122.678 91.4578 119.679 91.4578 115.98C91.4578 112.28 88.6202 109.281 85.1198 109.281C81.6195 109.281 78.7819 112.28 78.7819 115.98C78.7819 119.679 81.6195 122.678 85.1198 122.678Z" fill="#0160AA"/>
<path d="M10.686 120.342C14.1864 120.342 17.024 117.342 17.024 113.643C17.024 109.943 14.1864 106.944 10.686 106.944C7.1857 106.944 4.34811 109.943 4.34811 113.643C4.34811 117.342 7.1857 120.342 10.686 120.342Z" fill="#0160AA"/>
<path d="M10.6861 109.593C13.2096 109.593 15.2553 107.43 15.2553 104.763C15.2553 102.096 13.2096 99.9341 10.6861 99.9341C8.16255 99.9341 6.11685 102.096 6.11685 104.763C6.11685 107.43 8.16255 109.593 10.6861 109.593Z" fill="#0160AA"/>
<path d="M10.6861 100.713C12.4769 100.713 13.9287 99.1786 13.9287 97.2858C13.9287 95.393 12.4769 93.8586 10.6861 93.8586C8.89518 93.8586 7.44339 95.393 7.44339 97.2858C7.44339 99.1786 8.89518 100.713 10.6861 100.713Z" fill="#0160AA"/>
</svg>
